<svg xmlns="http://www.w3.org/2000/svg" viewBox="0 0 24 24"><path fill="#303C42" d="M17.644 11.112A6.953 6.953 0 0018.992 7c0-3.86-3.14-7-7-7s-7 3.14-7 7c0 1.544.509 2.969 1.36 4.128C5.981 12.448 4 19.687 4 22.5a.5.5 0 00.854.354c.94-.94 2.36-1.538 2.983-1.768l2.279 2.734a.5.5 0 00.884-.313c.04-2.791.348-7.223 1-9 .652 1.777.96 6.209 1 9a.5.5 0 00.884.313l2.28-2.735c.62.23 2.04.825 2.982 1.769A.5.5 0 0020 22.5c0-2.822-1.996-10.1-2.356-11.388z"/><circle fill="#FFCB29" cx="12.009" cy="7" r="6"/><path fill="#303C42" d="M10.034 22.16l-1.65-1.98a.503.503 0 00-.531-.158c-.074.023-1.492.466-2.775 1.356.32-2.754 1.547-7.446 2.062-9.344a6.975 6.975 0 004.027 1.913c-.796 1.903-1.052 5.96-1.133 8.213zm6.113-2.138a.504.504 0 00-.531.158l-1.65 1.98c-.081-2.254-.337-6.313-1.134-8.215a6.976 6.976 0 004.025-1.922c.513 1.89 1.744 6.595 2.065 9.355-1.283-.89-2.7-1.333-2.775-1.356zm-7.035-9.347a.5.5 0 00.779.515L12 9.684l2.109 1.506a.499.499 0 00.779-.515l-.624-2.804 2.307-1.978a.5.5 0 00-.27-.876l-2.945-.327-.888-2.37a.5.5 0 00-.937 0l-.888 2.37-2.945.327a.502.502 0 00-.27.876l2.306 1.978-.623 2.804z"/><path fill="#FFCB29" d="M8.954 5.883l2.105-.233a.501.501 0 00.413-.321L12 3.919l.528 1.41a.5.5 0 00.413.32l2.106.234-1.66 1.424a.499.499 0 00-.163.488l.405 1.823-1.338-.956a.5.5 0 00-.581 0l-1.338.956.405-1.823a.499.499 0 00-.163-.488l-1.66-1.424z"/><path opacity=".2" fill="#FFF" d="M11.641 6.232a.501.501 0 00.414-.321l.346-.923L12 3.92l-.529 1.409a.501.501 0 01-.413.32l-2.105.234.668.573 2.02-.224z"/><path fill="#7CB342" d="M10.043 22.16l-1.65-1.98a.503.503 0 00-.531-.158c-.075.023-1.492.466-2.776 1.356.32-2.754 1.548-7.446 2.063-9.344a6.975 6.975 0 004.026 1.913c-.795 1.903-1.051 5.96-1.132 8.213zm6.113-2.138a.504.504 0 00-.532.158l-1.65 1.98c-.08-2.254-.337-6.313-1.133-8.215a6.976 6.976 0 004.025-1.922c.512 1.89 1.744 6.595 2.065 9.355-1.284-.89-2.701-1.333-2.775-1.356z"/><linearGradient id="a" gradientUnits="userSpaceOnUse" x1="10.212" y1="10.175" x2="20.173" y2="20.136"><stop offset="0" stop-color="#010101" stop-opacity=".1"/><stop offset="1" stop-color="#010101" stop-opacity="0"/></linearGradient><path fill="url(#a)" d="M16.866 12.023a6.976 6.976 0 01-4.025 1.922c.448 1.07.722 2.825.893 4.556l1.794 1.795.096-.116a.504.504 0 01.532-.158c.074.023 1.491.466 2.775 1.356-.321-2.76-1.553-7.465-2.065-9.355zm-6.14 3.471c.128-.589.273-1.126.45-1.547a6.936 6.936 0 01-3.367-1.37l2.918 2.917z"/><linearGradient id="b" gradientUnits="userSpaceOnUse" x1="9.031" y1="4.29" x2="16.116" y2="11.375"><stop offset="0" stop-color="#010101" stop-opacity=".1"/><stop offset="1" stop-color="#010101" stop-opacity="0"/></linearGradient><path fill="url(#b)" d="M13.357 4.69l1.729.192L12.4 2.197l-.003.032c.022.032.057.053.07.091l.889 2.37zM9.735 7.87L7.43 5.893 9.676 8.14l.06-.269zm8.255-1.24l-1.265-1.265a.5.5 0 01-.153.527L14.265 7.87l.624 2.804a.5.5 0 01-.78.515L12 9.684 9.89 11.19a.5.5 0 01-.566.01l1.714 1.714c.316.052.64.086.97.086 3.31 0 6-2.691 6-6 0-.124-.01-.246-.018-.368z"/><linearGradient id="c" gradientUnits="userSpaceOnUse" x1="3.384" y1="8.897" x2="22.285" y2="17.711"><stop offset="0" stop-color="#fff" stop-opacity=".2"/><stop offset="1" stop-color="#fff" stop-opacity="0"/></linearGradient><path fill="url(#c)" d="M17.644 11.112A6.953 6.953 0 0018.992 7c0-3.86-3.14-7-7-7s-7 3.14-7 7c0 1.544.509 2.969 1.36 4.128C5.981 12.448 4 19.687 4 22.5a.5.5 0 00.854.354c.94-.94 2.36-1.538 2.983-1.768l2.279 2.734a.5.5 0 00.884-.313c.04-2.791.348-7.223 1-9 .652 1.777.96 6.209 1 9a.5.5 0 00.884.313l2.28-2.735c.62.23 2.04.825 2.982 1.769A.5.5 0 0020 22.5c0-2.822-1.996-10.1-2.356-11.388z"/></svg>