<svg xmlns="http://www.w3.org/2000/svg" viewBox="0 0 1010 739.746"><g fill="#323B5A"><path d="M580.889 565.14c-15.153-2.402-15.496-43.633-15.496-43.633s44.5-43.67 54.181-102.366c26.078 0 42.189-62.417 16.092-84.377 1.12-23.117 33.52-181.433-130.666-181.433-164.167 0-131.731 158.316-130.648 181.433-26.079 21.96-9.97 84.378 16.11 84.378 9.68 58.696 54.18 102.365 54.18 102.365s-.36 41.231-15.495 43.634c-48.763 7.71-230.81 87.302-230.81 174.605H811.7c0-87.303-182.049-166.894-230.811-174.605z"/><path d="M274.768 579.064c35.235-21.671 77.984-41.754 113.057-53.873-12.588-17.861-26.602-42.261-35.398-71.103-12.281-10.041-22.323-24.418-28.77-42.008-6.411-17.682-8.867-37.42-6.844-55.644 1.426-13.111 5.165-25.32 10.872-36.012-3.45-37.24-5.924-110.258 41.9-163.517 18.565-20.661 41.971-35.507 70.055-44.446C434.601 60.682 408.36 0 306.7 0 142.495 0 174.93 158.316 176.033 181.433c-26.079 21.925-9.97 84.377 16.11 84.377 9.698 58.66 54.162 102.329 54.162 102.329s-.361 41.25-15.477 43.67C182.047 419.483 0 499.075 0 586.414h263.246a615.421 615.421 0 0111.522-7.35zm472.003 7.351H1010c0-87.339-182.047-166.93-230.846-174.607-15.08-2.42-15.441-43.67-15.441-43.67s44.482-43.668 54.18-102.328c26.08 0 42.189-62.452 16.11-84.377C835.086 158.316 867.523 0 703.319 0 601.66 0 575.4 60.682 570.36 112.46c28.12 8.94 51.527 23.786 70.057 44.447 47.822 53.26 45.349 126.277 41.917 163.517 5.726 10.692 9.446 22.9 10.872 36.013 2.041 18.222-.433 37.961-6.844 55.643-6.466 17.59-16.471 31.967-28.77 42.008-8.814 28.842-22.847 53.242-35.416 71.103 35.073 12.119 77.857 32.202 113.057 53.873 3.937 2.457 7.784 4.877 11.54 7.351z"/></g></svg>