<svg height="91" width="91" xmlns="http://www.w3.org/2000/svg"><path d="M51.895 63.339c0-1.01-.098-1.996-.244-2.961l7.139-4.129-7.402-12.813-7.131 4.119a20.035 20.035 0 00-5.135-2.969v-8.234H24.324v8.234a20.382 20.382 0 00-4.955 2.828l-7.088-4.203-7.537 12.737 7.084 4.197a20.479 20.479 0 00-.273 3.193c0 1.008.094 1.996.24 2.965l-7.137 4.123 7.398 12.813 7.133-4.117a20.19 20.19 0 005.135 2.969v8.232h14.797v-8.232a19.974 19.974 0 004.955-2.832l7.084 4.203 7.549-12.734-7.092-4.199a20.21 20.21 0 00.278-3.19M31.72 73.188c-5.43 0-9.85-4.418-9.85-9.85 0-5.434 4.42-9.854 9.85-9.854 5.434 0 9.854 4.42 9.854 9.854 0 5.433-4.42 9.85-9.854 9.85" fill="#647F94"/><path d="M81.404 21.101c0-.77-.076-1.516-.188-2.252l5.426-3.127-5.621-9.74-5.42 3.125a15.374 15.374 0 00-3.898-2.25V.603h-11.25v6.254a15.061 15.061 0 00-3.754 2.148L51.31 5.814l-5.727 9.67 5.385 3.188a15.393 15.393 0 00-.213 2.43c0 .766.076 1.514.186 2.25l-5.424 3.131 5.624 9.742 5.416-3.131a15.511 15.511 0 003.896 2.25v6.254h11.25v-6.254a15.214 15.214 0 003.754-2.148l5.393 3.189 5.73-9.671-5.389-3.186c.131-.796.213-1.599.213-2.427m-15.324 8.6c-4.74 0-8.598-3.861-8.598-8.6 0-4.744 3.857-8.598 8.598-8.598 4.742 0 8.602 3.854 8.602 8.598 0 4.738-3.86 8.6-8.602 8.6" fill="#45596B"/></svg>