<svg viewBox="0 0 512 512" xmlns="http://www.w3.org/2000/svg"><linearGradient gradientUnits="userSpaceOnUse" id="a" x1="0" x2="512" y1="256" y2="256"><stop offset="0" stop-color="#33b49d"/><stop offset="1" stop-color="#00a185"/></linearGradient><circle cx="256" cy="256" fill="url(#a)" r="256"/><linearGradient gradientUnits="userSpaceOnUse" id="b" x1="42.667" x2="469.333" y1="256.001" y2="256.001"><stop offset="0" stop-color="#00a185"/><stop offset="1" stop-color="#33b49d"/></linearGradient><path d="M256 469.334c-117.631 0-213.333-95.702-213.333-213.333S138.369 42.667 256 42.667c117.636 0 213.333 95.703 213.333 213.334S373.636 469.334 256 469.334z" fill="url(#b)"/><path d="M199.3 228.296c-.934-1.956-1.5-4.118-1.5-6.43 0-8.283 6.716-15 15-15 8.285 0 15 6.717 15 15 0 2.696-.768 5.188-2.012 7.373l56.2 64.984c1.692-.66 3.519-1.057 5.446-1.057 4.46 0 8.42 1.985 11.168 5.074L384 263.733v-91.007H144v110.87l55.3-55.3z" opacity=".3"/><path d="M302.367 307.505c.01.225.067.435.067.661 0 8.285-6.716 15-15 15-8.284 0-15-6.715-15-15 0-2.693.768-5.185 2.01-7.37l-56.196-64.986c-1.693.66-3.52 1.057-5.448 1.057-2.311 0-4.475-.567-6.43-1.501L144 297.736v57.539h240V274.52l-81.633 32.984z" opacity=".3"/><g fill="#FFF"><path d="M191.3 220.296c-.934-1.956-1.5-4.118-1.5-6.43 0-8.283 6.716-15 15-15 8.285 0 15 6.717 15 15 0 2.696-.768 5.188-2.012 7.373l56.2 64.984c1.692-.66 3.519-1.057 5.446-1.057 4.46 0 8.42 1.985 11.168 5.074L376 255.733v-91.007H136v110.87l55.3-55.3z"/><path d="M294.367 299.505c.01.225.067.435.067.661 0 8.285-6.715 15-15 15-8.284 0-15-6.715-15-15 0-2.693.768-5.185 2.01-7.37l-56.196-64.986c-1.693.66-3.52 1.057-5.448 1.057-2.311 0-4.475-.567-6.43-1.501L136 289.736v57.539h240V266.52l-81.633 32.984z"/></g></svg>