<svg viewBox="0 0 512 512" xmlns="http://www.w3.org/2000/svg"><defs><style>.e{fill:#f4c762}.g{fill:#ededed}.h{fill:#cecece}.j{fill:#cc993e}.k{fill:#dfdfdf}.l{fill:#41a08e}.n{fill:#365650}.p{fill:#6e6e6e}</style></defs><g id="c"><path class="p" d="M482.616 298.315a32 32 0 00-19.793-25.186L440 264v-32h-32v32l-22.823 9.129a32 32 0 00-19.793 25.186L360 336h128l-5.384-37.685z"/><path class="e" d="M462.823 273.129L440 264c-8.837 8.836-23.163 8.836-32 0l-22.823 9.129a32 32 0 00-19.793 25.186L360 336h128l-5.384-37.685a32 32 0 00-19.793-25.186z"/><path d="M474.69 222.22a15.96 15.96 0 005.31-11.905c0-6.947-4.428-12.86-10.616-15.071a18.359 18.359 0 003.92-11.368c0-10.183-8.256-18.438-18.44-18.438-3.4 0-6.584.92-9.318 2.524-1.654-9.079-9.602-15.962-19.158-15.962-8.882 0-16.374 5.946-18.715 14.073A19.906 19.906 0 00396 162.315c-11.046 0-20 8.955-20 20 0 4.695 1.618 9.012 4.326 12.424C373.26 196.4 368 202.743 368 210.315a15.96 15.96 0 005.462 12.04l.003-.003a17.032 17.032 0 00-2.465 8.852c0 9.45 7.66 17.111 17.111 17.111 6.102 0 11.458-3.193 14.487-8l2.217-3.558-.043-4.757h41.491l.755 4.268c1.442 7.434 7.987 13.047 15.843 13.047 8.913 0 16.139-7.225 16.139-16.139 0-4.234-1.63-8.087-4.298-10.966l-.011.01zM108.401 157.6a36.779 36.779 0 00-40.802 0L40 176l16 16h64l16-16-27.599-18.4z" fill="#eab84b"/><path class="k" d="M130.12 272.707L104 264v-24H72v24l-26.12 8.707A32 32 0 0024 303.064V336h128v-32.936a32 32 0 00-21.88-30.357z"/><path class="e" d="M24 303.064V336h128v-32.936a32 32 0 00-21.88-30.357L104 264c-8.837 8.836-23.163 8.836-32 0l-26.12 8.707A32 32 0 0024 303.064z"/><path class="j" d="M64 296l24-24 24 24 27.47-18.313a31.924 31.924 0 00-9.35-4.98L104 264c-8.837 8.836-23.163 8.836-32 0l-26.12 8.707a31.924 31.924 0 00-9.35 4.98L64 296z"/><path class="k" d="M119.812 187.94a131.94 131.94 0 00-64 0v28.435c0 17.674 14.327 32 32 32 17.673 0 32-14.326 32-32V187.94z"/><path class="h" d="M308.515 113.03a22.483 22.483 0 01-.765-18.404c6.075-15.188-1.722-32.128-16.668-37.673l-70.16-.001c-14.949 5.543-22.747 22.485-16.672 37.674a22.483 22.483 0 01-.765 18.405 69.422 69.422 0 00-5.257 47.883l1.133 4.53 113.277.003 1.134-4.533a69.421 69.421 0 00-5.257-47.883z"/><path class="g" d="M224 56v36.625a31.35 31.35 0 0017.33 28.04l7.515 3.757a16 16 0 0014.31 0l7.515-3.757A31.35 31.35 0 00288 92.625V56h-64z"/><path class="g" d="M323.07 183.347A32 32 0 00306.001 161L272 144v-32h-32v32l-34.002 17a32 32 0 00-17.067 22.347L184 208h144l-4.93-24.653z"/><path d="M188.93 183.347L184 208h144l-4.93-24.653A32 32 0 00306.001 161L272 144l-16 16-16-16-34.002 17a32 32 0 00-17.067 22.347z" fill="#75bbad"/><path d="M279.155 94.31l-16 8a16 16 0 01-14.31 0l-16-8A16 16 0 01224 80v12.625a31.35 31.35 0 0017.33 28.04l7.515 3.757a16 16 0 0014.31 0l7.515-3.757A31.35 31.35 0 00288 92.625V80a16 16 0 01-8.845 14.31z" fill="#9b9b9b"/><path d="M216 56l11.534 2.307a145.147 145.147 0 0056.932 0L296 56c0-17.673-14.327-32-32-32h-16c-17.673 0-32 14.327-32 32z" fill="#bebebe"/><path class="p" d="M416.41 186.53A24 24 0 00400 209.298V224a19.314 19.314 0 005.657 13.657l4.686 4.686a19.314 19.314 0 0027.314 0l4.686-4.686A19.314 19.314 0 00448 224v-14.702a24 24 0 00-31.59-22.768z"/><path class="k" d="M56.278 145.934l-7.003-3.868c31.729-57.45 86.315-99.419 149.763-115.145l1.924 7.766C139.67 49.877 86.934 90.427 56.278 145.934zm95.069 321.651c-51.558-25.55-91.964-68.9-113.776-122.066l7.401-3.038c21.073 51.367 60.113 93.25 109.927 117.936l-3.552 7.168zm209.307-.001l-3.552-7.168c50.932-25.24 90.415-68.228 111.175-121.045l7.446 2.926c-21.489 54.67-62.354 99.165-115.07 125.287zm95.068-321.65c-30.656-55.507-83.391-96.056-144.684-111.247l1.924-7.766c63.448 15.726 118.034 57.695 149.763 115.145l-7.003 3.868z"/><path class="l" d="M272 144l-16 16-16-16-16 8 32 40 32-40-16-8z"/><path fill="#349381" d="M260 156l-4 4-4-4v31l4 5 4-5v-31z"/><path class="h" d="M88 252c-5.609 0-10.984-1.256-15.978-3.732l3.555-7.166A27.725 27.725 0 0088 244c4.286 0 8.396-.941 12.217-2.798l3.496 7.195C98.794 250.788 93.508 252 88 252z"/><path class="j" d="M483.93 308.293l.11-.01-1.132-7.926C465.288 302.855 452 318.177 452 336h8c0-13.828 10.28-25.72 23.93-27.707zm-11.715-29.337c-22.747 10.651-39.2 31.57-44.137 56.26l-.01.054-.136.73h8.16c4.717-22.271 19.862-41.046 40.67-50.337l.92-.37a32.007 32.007 0 00-5.467-6.337zm-59.392 53.324a95.514 95.514 0 0133.934-55.763l8.204-6.533-8.548-3.419-4.646 3.7a103.428 103.428 0 00-25.872 30.698c-3.86-8.552-10.257-15.845-18.422-20.743l-12.033-7.196-.263.105a31.953 31.953 0 00-7.725 4.438l15.91 9.515c8.877 5.326 15.235 14.073 17.604 24.12a103.234 103.234 0 00-4.07 11.635c-7.461-12.715-20.725-21.376-35.913-22.668l-5.789-.53-1.132 7.93 6.217.569c15.942 1.356 29.309 12.502 33.578 27.862h8.222l.744-3.72z"/><path class="l" d="M256 232c-70.692 0-128 57.308-128 128s57.308 128 128 128 128-57.308 128-128-57.308-128-128-128zm-96 128c0-47.568 34.596-87.055 80-94.673V344l-65.98 65.979C165.125 395.421 160 378.309 160 360zm36.59 75.413L240 392l.01 62.674c-16.212-2.718-31.047-9.5-43.42-19.26zm75.41 19.26V392l43.411 43.413c-12.371 9.76-27.202 16.54-43.41 19.26zm65.98-44.694L272 344l-.017-78.676C317.395 272.935 352 312.426 352 360c0 18.309-5.125 35.42-14.02 49.979z"/><path d="M424 252a23.233 23.233 0 01-15.933-6.294l5.468-5.84A15.258 15.258 0 00424 244c3.925 0 7.66-1.484 10.513-4.179l5.492 5.817A23.226 23.226 0 01424 252z" fill="#575757"/><path class="n" d="M200.537 96.111a18.5 18.5 0 01-.63 15.13 73.47 73.47 0 00-5.559 50.643l.556 2.221c-4.999 4.96-8.469 11.321-9.896 18.458l-4.93 24.653 7.844 1.568 4.931-24.653c1.707-8.533 7.15-15.66 14.935-19.552l15.109-7.555 29.98 37.475a4.002 4.002 0 006.247 0l29.98-37.475 15.109 7.555c7.784 3.892 13.227 11.019 14.934 19.552l4.93 24.653 7.845-1.568-4.93-24.653c-1.427-7.137-4.897-13.499-9.895-18.458l.555-2.221a73.47 73.47 0 00-5.56-50.643 18.5 18.5 0 01-.629-15.13c3.312-8.278 3.147-17.321-.465-25.463-2.47-5.566-6.317-10.216-11.155-13.591.094-.34.157-.69.157-1.057 0-19.85-16.15-36-36-36h-16c-19.85 0-36 16.15-36 36 0 .366.064.717.157 1.057-4.837 3.375-8.685 8.023-11.154 13.59-3.613 8.141-3.778 17.185-.466 25.464zM228 62.463a148.83 148.83 0 0028 2.678c9.353 0 18.707-.9 28-2.678V80a11.93 11.93 0 01-6.634 10.732l-16 8.001a12.052 12.052 0 01-10.732 0l-16-8A11.931 11.931 0 01228 80V62.463zm3.056 35.426l16 7.999a19.998 19.998 0 008.944 2.101c3.072 0 6.145-.7 8.944-2.1l16-8c1-.5 1.937-1.083 2.821-1.723-1.15 8.973-6.629 16.794-14.883 20.92l-7.516 3.759a12.053 12.053 0 01-10.733-.001l-7.514-3.757c-8.255-4.127-13.733-11.948-14.884-20.92a20.2 20.2 0 002.82 1.722zM256 154.343l-12-12v-15.871l3.055 1.527a19.998 19.998 0 008.945 2.102c3.072 0 6.144-.7 8.944-2.101l3.056-1.528v15.871l-12 12zm-16.79-5.476l12.79 12.79v18.94l-21.785-27.232 8.996-4.498zm20.79 31.73v-18.94l12.79-12.79 8.995 4.498L260 180.597zm44.036-87.456a26.505 26.505 0 00.901 21.678 65.459 65.459 0 015.228 43.916 37.32 37.32 0 00-2.374-1.312L276 141.528v-19.337c9.953-6.484 16-17.47 16-29.566v-30.93c5.193 2.544 9.292 6.802 11.686 12.197 2.729 6.154 2.854 12.99.35 19.249zM248 28h16c14.343 0 26.202 10.84 27.813 24.758l-8.132 1.627c-18.368 3.674-36.994 3.674-55.363 0l-8.131-1.627C221.797 38.84 233.657 28 248 28zm-39.685 45.89c2.394-5.394 6.493-9.65 11.685-12.195v30.93c0 12.096 6.046 23.082 16 29.566v19.337l-31.79 15.895c-.814.407-1.601.851-2.375 1.313a65.46 65.46 0 015.228-43.917 26.505 26.505 0 00.901-21.678c-2.504-6.26-2.379-13.097.351-19.25zM244 344v-78.673a4 4 0 00-4.663-3.945c-23.047 3.867-44.144 15.837-59.405 33.703C164.5 313.152 156 336.206 156 360c0 18.42 5.05 36.424 14.606 52.064a3.998 3.998 0 006.243.744l65.98-65.98A4 4 0 00244 344zm-69.111 59.454C167.75 390.147 164 375.23 164 360c0-21.89 7.818-43.1 22.015-59.72 13.006-15.226 30.614-25.797 49.985-30.1v72.163l-61.111 61.111zm97.756-142.075a3.998 3.998 0 00-4.661 3.946l.016 78.676a4 4 0 001.171 2.827l65.98 65.979a4 4 0 006.243-.744C350.949 396.423 356 378.42 356 360c0-23.797-8.501-46.854-23.938-64.922-15.264-17.868-36.366-29.836-59.417-33.7zm64.467 142.074L276 342.343l-.016-72.166c19.374 4.3 36.987 14.87 49.996 30.097C340.18 316.896 348 338.106 348 360c0 15.23-3.751 30.147-10.888 43.453zm-95.582-15.148a4 4 0 00-4.359.867l-43.41 43.413a4.002 4.002 0 00.35 5.969c13.145 10.369 28.787 17.307 45.238 20.065a4 4 0 004.661-3.946l-.01-62.674a4 4 0 00-2.47-3.694zm-38.85 46.675L236 401.655l.008 48.165a91.987 91.987 0 01-33.33-14.84zm72.149-45.808A4 4 0 00268 392v62.673a4 4 0 004.663 3.945c16.446-2.76 32.085-9.698 45.226-20.064a4.003 4.003 0 00.35-5.969l-43.41-43.413zM276 449.819v-48.162l33.321 33.323a92.025 92.025 0 01-33.32 14.84zM200.962 34.687l-1.924-7.766C135.59 42.647 81.004 84.616 49.275 142.066l7.003 3.868c30.656-55.507 83.391-96.056 144.684-111.247zM44.972 342.481l-7.401 3.038c21.812 53.166 62.218 96.516 113.776 122.066l3.552-7.168c-49.814-24.686-88.854-66.57-109.927-117.936zm312.13 117.935l3.552 7.168c52.715-26.122 93.58-70.617 115.069-125.287l-7.446-2.926c-20.76 52.817-60.243 95.806-111.175 121.045zm98.62-314.482l7.003-3.868c-31.729-57.45-86.315-99.419-149.763-115.145l-1.924 7.766c61.293 15.19 114.028 55.74 144.684 111.247z"/><path class="n" d="M486.576 297.749c-1.815-12.709-10.348-23.566-22.268-28.334L444 261.292v-19.635l.42-.42c3.148 7.192 10.32 12.078 18.44 12.078 11.106 0 20.14-9.034 20.14-20.138 0-3.838-1.083-7.545-3.097-10.736A20.036 20.036 0 00484 210.315c0-6.782-3.45-13.005-8.929-16.657a22.257 22.257 0 002.232-9.782c0-12.373-10.066-22.439-22.439-22.439-2.311 0-4.6.357-6.781 1.047A23.462 23.462 0 00426.388 148c-8.718 0-16.642 4.896-20.676 12.36a23.882 23.882 0 00-9.712-2.045c-13.234 0-24 10.767-24 24 0 3.624.832 7.204 2.393 10.44-6.308 3.43-10.393 10.067-10.393 17.56 0 4.7 1.654 9.213 4.616 12.78a21.126 21.126 0 00-1.616 8.11c0 11.64 9.47 21.11 21.11 21.11a20.986 20.986 0 0015.89-7.222v16.199l-20.309 8.123c-7.934 3.174-14.462 9.147-18.428 16.6C341.498 251.028 301.39 228 256 228c-43.745 0-82.58 21.395-106.612 54.264-4.398-6.236-10.643-10.899-18.004-13.353L108 261.117v-15.2c9.64-6.466 16-17.462 16-29.917v-22.343l14.829-14.829a3.999 3.999 0 00-.61-6.156l-27.599-18.4a40.674 40.674 0 00-45.24 0l-27.599 18.4a4 4 0 00-.61 6.156L52 193.657V216c0 12.455 6.36 23.45 16 29.916v15.201l-23.384 7.794A35.956 35.956 0 0020 303.064V336h8v-32.936a27.94 27.94 0 018.818-20.378l24.963 16.642a3.995 3.995 0 005.047-.5L88 277.658l21.171 21.17a4 4 0 005.048.5l24.983-16.656a27.98 27.98 0 015.27 6.797C131.514 309.886 124 334.081 124 360c0 72.785 59.215 132 132 132s132-59.215 132-132c0-17.838-3.564-34.857-10.005-50.393A38.234 38.234 0 01403.843 336h8.236l.744-3.72a95.518 95.518 0 0133.942-55.77l4.58-3.664 9.992 3.997a27.838 27.838 0 016.981 4.07c-20.72 11.137-35.589 31.047-40.24 54.303l-.146.784h8.16c4.504-21.27 18.527-39.345 37.906-49.021a27.96 27.96 0 014.658 11.9l.325 2.272C463.35 305.203 452 319.53 452 336h8c0-12.509 8.413-23.43 20.12-26.87l3.92 27.435 7.92-1.13-5.384-37.686zM46.278 176.622l23.54-15.693a32.698 32.698 0 0136.365 0l23.539 15.693-10.978 10.977a136.443 136.443 0 00-61.488 0l-10.978-10.977zM60 216v-20.837a128.432 128.432 0 0156 0V216c0 15.44-12.56 28-28 28s-28-12.56-28-28zm3.49 74.853l-19.552-13.036a28.12 28.12 0 013.208-1.316l23.902-7.967a26.375 26.375 0 009.676 5.085L63.49 290.853zM76 262.235v-12.3c3.756 1.333 7.793 2.065 12 2.065s8.244-.732 12-2.064v12.299c-3.355 2.838-7.555 4.393-12 4.393s-8.645-1.555-12-4.393zm36.51 28.618l-17.234-17.234a26.375 26.375 0 009.676-5.085l23.902 7.967c1.11.37 2.183.811 3.223 1.307l-19.567 13.045zM444 224c0 4.09-1.593 7.937-4.485 10.828l-4.687 4.687C431.936 242.407 428.09 244 424 244s-7.936-1.593-10.829-4.486l-4.686-4.685A15.214 15.214 0 01404 224v-14.702a19.973 19.973 0 0113.675-18.973c2.04-.68 4.182-1.02 6.325-1.02s4.285.34 6.325 1.02A19.973 19.973 0 01444 209.298V224zm-8 24.684v13.55c-3.355 2.839-7.555 4.394-12 4.394s-8.645-1.555-12-4.393v-13.55c3.587 2.16 7.705 3.315 12 3.315s8.413-1.155 12-3.316zm-40-39.386V224c0 4.7 1.382 9.185 3.952 12.997l-.738 1.185a13.06 13.06 0 01-11.103 6.133c-7.23 0-13.111-5.881-13.111-13.11 0-2.4.652-4.743 1.886-6.78a4 4 0 00-.872-5.153 12.007 12.007 0 01-4.014-8.957c0-5.6 3.8-10.404 9.24-11.68a4.001 4.001 0 002.22-6.381 15.835 15.835 0 01-3.46-9.939c0-8.822 7.178-16 16-16 3.377 0 6.606 1.04 9.336 3.004a4 4 0 006.18-2.138c1.897-6.583 8.012-11.181 14.872-11.181 7.457 0 13.841 5.297 15.209 12.605a4.002 4.002 0 006.085 2.742 14.431 14.431 0 017.182-1.91c7.962 0 14.44 6.478 14.44 14.439 0 3.227-1.037 6.27-3 8.812a4.002 4.002 0 001.786 6.342 12.028 12.028 0 017.91 11.285c0 3.4-1.452 6.655-3.982 8.93l-.018.015a4 4 0 00-.032 5.89 12.1 12.1 0 013.032 8.027c0 6.693-5.446 12.138-12.14 12.138-5.801 0-10.813-4.126-11.903-9.744l-.547-3.092A23.295 23.295 0 00452 224v-14.702a27.965 27.965 0 00-19.146-26.563 28.188 28.188 0 00-17.708 0A27.966 27.966 0 00396 209.298zM380 360c0 68.374-55.626 124-124 124s-124-55.626-124-124 55.626-124 124-124 124 55.626 124 124zm26.896-37.163c-6.991-11.912-19.08-20.258-33.085-22.33a131.923 131.923 0 00-3.386-6.262c1.902-5.882 5.737-10.977 10.775-14.46l12.163 7.297c8.876 5.326 15.234 14.073 17.603 24.12a103.254 103.254 0 00-4.07 11.635zm34.87-52.572a103.428 103.428 0 00-25.87 30.698c-3.86-8.552-10.257-15.844-18.417-20.74l-7.706-4.624 17.4-6.96c4.74 3.879 10.621 5.989 16.827 5.989s12.087-2.11 16.827-5.99l1.981.793-1.041.834z"/></g></svg>